<?xml version="1.0" encoding="UTF-8" standalone="no"?>
<svg
   xmlns:dc="http://purl.org/dc/elements/1.1/"
   xmlns:cc="http://creativecommons.org/ns#"
   xmlns:rdf="http://www.w3.org/1999/02/22-rdf-syntax-ns#"
   xmlns:svg="http://www.w3.org/2000/svg"
   xmlns="http://www.w3.org/2000/svg"
   xmlns:sodipodi="http://sodipodi.sourceforge.net/DTD/sodipodi-0.dtd"
   xmlns:inkscape="http://www.inkscape.org/namespaces/inkscape"
   height="512"
   viewBox="0 0 128 128"
   width="512"
   version="1.1"
   id="svg16"
   sodipodi:docname="robotico.svg"
   inkscape:version="1.0.1 (3bc2e813f5, 2020-09-07)">
  <metadata
     id="metadata22">
    <rdf:RDF>
      <cc:Work
         rdf:about="">
        <dc:format>image/svg+xml</dc:format>
        <dc:type
           rdf:resource="http://purl.org/dc/dcmitype/StillImage" />
        <dc:title></dc:title>
      </cc:Work>
    </rdf:RDF>
  </metadata>
  <defs
     id="defs20" />
  <sodipodi:namedview
     pagecolor="#ffffff"
     bordercolor="#666666"
     borderopacity="1"
     objecttolerance="10"
     gridtolerance="10"
     guidetolerance="10"
     inkscape:pageopacity="0"
     inkscape:pageshadow="2"
     inkscape:window-width="1366"
     inkscape:window-height="704"
     id="namedview18"
     showgrid="false"
     inkscape:zoom="0.47662586"
     inkscape:cx="142.35844"
     inkscape:cy="352.21325"
     inkscape:window-x="0"
     inkscape:window-y="30"
     inkscape:window-maximized="1"
     inkscape:current-layer="svg16" />
  <g
     id="g14"
     style="fill:#ffffff">
    <path
       d="m89.917 75.305a7.759 7.759 0 0 0 7.75-7.75v-.385h6.143a1.751 1.751 0 0 0 1.75-1.75v-23.54a1.751 1.751 0 0 0 -1.75-1.75h-6.143v-.383a7.759 7.759 0 0 0 -7.75-7.747h-21.167v-6.871a10.75 10.75 0 1 0 -9.5 0v6.871h-21.167a7.759 7.759 0 0 0 -7.75 7.75v.383h-6.143a1.751 1.751 0 0 0 -1.75 1.75v23.537a1.751 1.751 0 0 0 1.75 1.75h6.143v.385a7.759 7.759 0 0 0 7.75 7.75h12.167v5.316h-20.058a7.759 7.759 0 0 0 -7.75 7.75v33.129a1.751 1.751 0 0 0 1.75 1.75h79.616a1.751 1.751 0 0 0 1.75-1.75v-33.129a7.759 7.759 0 0 0 -7.75-7.75h-20.058v-5.316zm12.143-31.675v20.04h-4.393v-20.04zm-45.31-28.13a7.25 7.25 0 1 1 7.25 7.25 7.258 7.258 0 0 1 -7.25-7.25zm6 10.671a9.929 9.929 0 0 0 2.5 0v5.829h-2.5zm-36.81 37.499v-20.04h4.393v20.04zm7.893 3.885v-27.808a4.255 4.255 0 0 1 4.25-4.25h22.888.029s.019 0 .029 0h5.942.029s.019 0 .029 0h22.888a4.255 4.255 0 0 1 4.25 4.25v27.808a4.255 4.255 0 0 1 -4.25 4.25h-13.869c-.016 0-.031-.005-.048-.005s-.032 0-.048.005h-23.9c-.016 0-.031-.005-.048-.005s-.032 0-.048.005h-13.873a4.255 4.255 0 0 1 -4.25-4.25zm50.916 52.195h-41.5v-14.437h41.5zm17.309-31.379v31.379h-13.809v-16.187a1.75 1.75 0 0 0 -1.75-1.75h-45a1.751 1.751 0 0 0 -1.75 1.75v16.187h-13.807v-31.379a4.255 4.255 0 0 1 4.25-4.25h67.616a4.255 4.255 0 0 1 4.25 4.25zm-27.808-7.75h-20.5v-5.316h20.5z"
       id="path2"
       style="fill:#ffffff" />
    <path
       d="m55.251 49.648a7.75 7.75 0 1 0 -7.751 7.752 7.759 7.759 0 0 0 7.751-7.752zm-7.751 4.252a4.25 4.25 0 1 1 4.25-4.25 4.255 4.255 0 0 1 -4.25 4.25z"
       id="path4"
       style="fill:#ffffff" />
    <path
       d="m80.5 57.4a7.75 7.75 0 1 0 -7.75-7.75 7.759 7.759 0 0 0 7.75 7.75zm0-12a4.25 4.25 0 1 1 -4.25 4.25 4.255 4.255 0 0 1 4.25-4.25z"
       id="path6"
       style="fill:#ffffff" />
    <path
       d="m51.875 64.875a1.751 1.751 0 0 0 1.75 1.75h20.75a1.75 1.75 0 0 0 0-3.5h-20.75a1.751 1.751 0 0 0 -1.75 1.75z"
       id="path8"
       style="fill:#ffffff" />
    <path
       d="m94.808 96.121a4.75 4.75 0 1 0 -4.75-4.75 4.756 4.756 0 0 0 4.75 4.75zm0-6a1.25 1.25 0 1 1 -1.25 1.25 1.251 1.251 0 0 1 1.25-1.25z"
       id="path10"
       style="fill:#ffffff" />
    <path
       d="m28.442 91.371a4.75 4.75 0 1 0 4.75-4.75 4.756 4.756 0 0 0 -4.75 4.75zm4.75-1.25a1.25 1.25 0 1 1 -1.25 1.25 1.25 1.25 0 0 1 1.25-1.25z"
       id="path12"
       style="fill:#ffffff" />
  </g>
</svg>
